Mirrors 2 (2010) DVDRip AC3 MultiSubs 5x

Rip from the Retail DVD9 External subs idx

PLOT

When Max, who is recovering from a traumatic accident,
takes a job as a nighttime security guard,
he begins to see visions of a young mysterious woman in the store's mirror.
 
http://www.youtube.com/watch?v=SQDinAzvXnc

MM: http://www.moviemeter.nl/film/68039

IMDB: http://www.imdb.com/title/tt1576699/

INFO

Video #0
ID : 0
Format : MPEG-4 Visual
Format profile : AdvancedSimple@L5
Format settings, BVOP : Yes
Format settings, QPel : No
Format settings, GMC : No warppoints
Format settings, Matrix : Default (H.263)
Muxing mode : Packed bitstream
Codec ID : DX50
Codec ID/Hint : DivX 5
Duration : 1h 26mn
Bit rate : 1 462 Kbps
Width : 720 pixels
Height : 406 pixels
Display aspect ratio : 16:9
Frame rate : 25.000 fps
Resolution : 24 bits
Colorimetry : 4:2:0
Scan type : Progressive
Bits/(Pixel*Frame) : 0.200
Stream size : 902 MiB (76%)
Writing library : XviD 1.2.1 (UTC 2008-12-04)
Audio #1
ID : 1
Format : AC-3
Format/Info : Audio Coding 3
Codec ID : 2000
Duration : 1h 26mn
Bit rate mode : Constant
Bit rate : 448 Kbps
Channel(s) : 6 channels
Channel positions : Front: L C R, Surround: L R, LFE
Sampling rate : 48.0 KHz
Stream size : 277 MiB (23%)
Alignment : Aligned on interleaves
Interleave, duration : 32 ms (0.80 video frame)
Interleave, preload duration : 32 ms


Thanks To NLUPPER

ENJOY